<svg xmlns="http://www.w3.org/2000/svg" id="RUSH" width="36" height="20.195" viewBox="0 0 36 20.195">
    <defs>
        <clipPath id="clip-path">
            <path id="Trazado_2228" d="M17.84 6.5a.506.506 0 0 1 .091 1l-.091.008H.51a.506.506 0 0 1-.092-1L.51 6.5zm9.076.968a.32.32 0 0 1 .337.415l-.028.091-.344.867a.837.837 0 0 1-.71.506.321.321 0 0 1-.337-.415l.028-.091.344-.867a.837.837 0 0 1 .71-.506zm-13.155 2.07a.506.506 0 0 1 .095 1l-.092.008-6.116.019a.506.506 0 0 1-.1-1l.092-.009zm18.91.958a.547.547 0 0 1-.189.645l-.086.071-.941.681c-.276.2-.6.2-.724.008a.546.546 0 0 1 .19-.645l.085-.071.941-.681c.277-.204.601-.204.724-.004zm-13.414-.04l.046.059.394.67c.117.2-.014.521-.293.717a.546.546 0 0 1-.671.051l-.046-.059-.394-.671c-.117-.2.014-.521.292-.716a.546.546 0 0 1 .673-.05zm-8.557 2.12a.506.506 0 0 1 .095 1l-.091.008-8.155.02a.506.506 0 0 1-.095-1l.091-.009zm-2.035 3.039a.506.506 0 0 1 .091 1l-.091.008H4.588a.507.507 0 0 1-.088-1l.092-.007zm23.463 1.456c.282 0 .42.227.31.506a.857.857 0 0 1-.616.5l-.1.008h-.891c-.281 0-.419-.227-.309-.506a.86.86 0 0 1 .616-.5l.095-.008zm-17.12 0c.281 0 .42.227.309.506a.857.857 0 0 1-.616.5l-.095.008h-.928c-.282 0-.42-.227-.309-.506a.856.856 0 0 1 .615-.5l.1-.008zm6.481 2.038c-.641.464-.942 1.224-.669 1.688s1 .459 1.629 0 .942-1.224.669-1.688l-.064-.091c-.31-.365-.977-.334-1.565.092zm9.192-5.468a.547.547 0 0 1-.19.645l-.086.071L24.28 18.8a2.937 2.937 0 0 1-1.38 2.707c-1.194.864-2.578.864-3.087 0s.046-2.245 1.23-3.1a2.4 2.4 0 0 1 2.808-.327l6.108-4.424c.273-.205.597-.208.722-.013zm-18.642 3.565a10.238 10.238 0 0 0-.679 5.931 1.388 1.388 0 0 0 1.482 1.046h14.872a3.443 3.443 0 0 0 2.3-1.04A17.059 17.059 0 0 0 34.4 16.2c1.694-5.453-.991-9.83-6.227-10.169l-.287-.015c-6.144-.225-13.33 4.837-15.847 11.19zm16.6-12.181c5.731.371 8.66 5.144 6.811 11.095a18.571 18.571 0 0 1-4.769 7.551 5.033 5.033 0 0 1-3.368 1.529H12.441a2.025 2.025 0 0 1-2.16-1.53 11.156 11.156 0 0 1 .739-6.459c2.785-7.036 10.833-12.627 17.616-12.186z" class="cls-1" data-name="Trazado 2228" transform="translate(0 -5)"/>
        </clipPath>
        <clipPath id="clip-path-2">
            <path id="Rect치ngulo_986" d="M0 0H282.731V606.73H0z" class="cls-1" data-name="Rect치ngulo 986"/>
        </clipPath>
        <style>
            .cls-1{fill:#4060b6}
        </style>
    </defs>
    <g id="Grupo_2498" data-name="Grupo 2498">
        <g id="Grupo_2497" clip-path="url(#clip-path)" data-name="Grupo 2497">
            <g id="Grupo_2496" data-name="Grupo 2496" transform="translate(-35.122 -477.657)">
                <g id="Grupo_2495" clip-path="url(#clip-path-2)" data-name="Grupo 2495">
                    <path id="Rect치ngulo_985" d="M0 0H43.024V27.219H0z" class="cls-1" data-name="Rect치ngulo 985" transform="translate(31.61 474.145)"/>
                </g>
            </g>
        </g>
    </g>
</svg>
